<?xml version="1.0" encoding="UTF-8" standalone="no"?>
<!DOCTYPE svg PUBLIC "-//W3C//DTD SVG 1.1//EN" "http://www.w3.org/Graphics/SVG/1.1/DTD/svg11.dtd">
<svg width="100%" height="100%" viewBox="0 0 2521 3802" version="1.1" xmlns="http://www.w3.org/2000/svg" xmlns:xlink="http://www.w3.org/1999/xlink" xml:space="preserve" xmlns:serif="http://www.serif.com/" style="fill-rule:evenodd;clip-rule:evenodd;stroke-linejoin:round;stroke-miterlimit:2;">
    <g transform="matrix(2.57993,0,0,2.57993,-6169.63,-4245.48)">
        <path d="M2868.68,1645.58C3185.69,1743.93 3405.12,2123.99 3331.79,2447.7C3088.11,2673.06 2649.26,2673.06 2405.58,2447.7C2332.25,2123.99 2551.67,1743.93 2868.68,1645.58Z" style="fill:rgb(3,87,66);"/>
    </g>
    <g transform="matrix(2.91996,0,0,2.91996,-6840.21,-5104.46)">
        <circle cx="2764.28" cy="2232.63" r="291.202"/>
    </g>
    <g transform="matrix(1.12715,0,0,2.65516,-1821.61,-4699.47)">
        <path d="M2708.6,2034.9C2708.6,2034.9 2976.46,2154.93 2976.46,2302.77C2976.46,2450.6 2708.6,2570.63 2708.6,2570.63C2708.6,2570.63 2440.73,2450.6 2440.73,2302.77C2440.73,2154.93 2708.6,2034.9 2708.6,2034.9Z" style="fill:rgb(4,127,96);"/>
    </g>
    <g transform="matrix(1.30104,0,0,0.767404,-1537.72,2470.1)">
        <g transform="matrix(422.739,0,0,716.702,1161.4,963.085)">
            <path d="M0.697,-0.641C0.629,-0.709 0.536,-0.75 0.433,-0.75C0.226,-0.75 0.058,-0.582 0.058,-0.375C0.058,-0.168 0.226,-0 0.433,-0C0.537,-0 0.631,-0.043 0.699,-0.111L0.559,-0.249C0.528,-0.217 0.484,-0.199 0.433,-0.199C0.331,-0.199 0.257,-0.273 0.257,-0.375C0.257,-0.477 0.331,-0.551 0.433,-0.551C0.484,-0.551 0.528,-0.533 0.559,-0.502L0.697,-0.641Z" style="fill:white;fill-rule:nonzero;"/>
        </g>
        <g transform="matrix(422.739,0,0,716.702,1454.78,963.085)">
            <path d="M0.076,-0.75L0.076,-0L0.273,-0L0.273,-0.286L0.511,-0.286L0.511,-0L0.708,-0L0.708,-0.75L0.511,-0.75L0.511,-0.483L0.273,-0.483L0.273,-0.75L0.076,-0.75Z" style="fill:white;fill-rule:nonzero;"/>
        </g>
        <g transform="matrix(422.739,0,0,716.702,1752.39,963.085)">
            <path d="M0.076,-0L0.542,-0L0.542,-0.161L0.273,-0.161L0.273,-0.299L0.511,-0.299L0.511,-0.465L0.273,-0.465L0.273,-0.587L0.542,-0.587L0.542,-0.75L0.076,-0.75L0.076,-0Z" style="fill:white;fill-rule:nonzero;"/>
        </g>
        <g transform="matrix(422.739,0,0,716.702,1975.6,963.085)">
            <path d="M0.526,-0.52C0.526,-0.648 0.423,-0.75 0.295,-0.75C0.167,-0.75 0.065,-0.647 0.065,-0.519C0.065,-0.391 0.167,-0.289 0.295,-0.289C0.326,-0.289 0.352,-0.263 0.352,-0.232C0.352,-0.201 0.326,-0.176 0.295,-0.176C0.264,-0.176 0.239,-0.201 0.239,-0.233L0.064,-0.233C0.064,-0.101 0.167,-0 0.295,-0C0.423,-0 0.526,-0.102 0.526,-0.23C0.526,-0.285 0.508,-0.335 0.476,-0.375C0.434,-0.429 0.368,-0.464 0.295,-0.464C0.264,-0.464 0.239,-0.489 0.239,-0.52C0.239,-0.551 0.264,-0.577 0.295,-0.577C0.326,-0.577 0.352,-0.551 0.352,-0.52L0.526,-0.52Z" style="fill:white;fill-rule:nonzero;"/>
        </g>
        <g transform="matrix(422.739,0,0,716.702,2191.62,963.085)">
            <path d="M0.076,-0.75L0.076,-0L0.273,-0L0.273,-0.286L0.511,-0.286L0.511,-0L0.708,-0L0.708,-0.75L0.511,-0.75L0.511,-0.483L0.273,-0.483L0.273,-0.75L0.076,-0.75Z" style="fill:white;fill-rule:nonzero;"/>
        </g>
        <g transform="matrix(422.739,0,0,716.702,2489.22,963.085)">
            <rect x="0.075" y="-0.75" width="0.197" height="0.75" style="fill:white;fill-rule:nonzero;"/>
        </g>
        <g transform="matrix(422.739,0,0,716.702,2602.52,963.085)">
            <path d="M0.738,-0L0.579,-0.272C0.633,-0.322 0.668,-0.394 0.668,-0.474C0.668,-0.626 0.544,-0.75 0.392,-0.75L0.076,-0.75L0.076,-0L0.273,-0L0.273,-0.199L0.395,-0.199L0.511,-0L0.738,-0ZM0.273,-0.584L0.395,-0.584C0.455,-0.584 0.503,-0.536 0.503,-0.476C0.503,-0.416 0.455,-0.369 0.395,-0.369L0.273,-0.369L0.273,-0.584Z" style="fill:white;fill-rule:nonzero;"/>
        </g>
        <g transform="matrix(422.739,0,0,716.702,2889.98,963.085)">
            <path d="M0.076,-0L0.542,-0L0.542,-0.161L0.273,-0.161L0.273,-0.299L0.511,-0.299L0.511,-0.465L0.273,-0.465L0.273,-0.587L0.542,-0.587L0.542,-0.75L0.076,-0.75L0.076,-0Z" style="fill:white;fill-rule:nonzero;"/>
        </g>
        <g transform="matrix(422.739,0,0,716.702,1706.31,1734.52)">
            <path d="M0.697,-0.641C0.629,-0.709 0.536,-0.75 0.433,-0.75C0.226,-0.75 0.058,-0.582 0.058,-0.375C0.058,-0.168 0.226,-0 0.433,-0C0.537,-0 0.631,-0.043 0.699,-0.111L0.559,-0.249C0.528,-0.217 0.484,-0.199 0.433,-0.199C0.331,-0.199 0.257,-0.273 0.257,-0.375C0.257,-0.477 0.331,-0.551 0.433,-0.551C0.484,-0.551 0.528,-0.533 0.559,-0.502L0.697,-0.641Z" style="fill:white;fill-rule:nonzero;"/>
        </g>
        <g transform="matrix(422.739,0,0,716.702,1999.69,1734.52)">
            <path d="M0.223,-0L0.268,-0.098L0.575,-0.098L0.621,-0L0.818,-0L0.465,-0.75L0.376,-0.75L0.026,-0L0.223,-0ZM0.422,-0.429L0.498,-0.264L0.345,-0.264L0.422,-0.429Z" style="fill:white;fill-rule:nonzero;"/>
        </g>
        <g transform="matrix(422.739,0,0,716.702,2301.11,1734.52)">
            <path d="M0.06,-0.555L0.255,-0.555L0.255,-0L0.452,-0L0.452,-0.555L0.651,-0.555L0.651,-0.751L0.06,-0.751L0.06,-0.555Z" style="fill:white;fill-rule:nonzero;"/>
        </g>
    </g>
</svg>
